<svg width="64" height="61" viewBox="0 0 64 61" fill="none" xmlns="http://www.w3.org/2000/svg">
<g filter="url(#filter0_d_33_70)">
<rect x="12" y="9" width="40" height="40" rx="8.57143" fill="white"/>
<path fill-rule="evenodd" clip-rule="evenodd" d="M20.5714 22.844V32.861C20.5714 33.213 20.8537 33.4984 21.2018 33.4984C21.2869 33.4984 21.3711 33.481 21.4493 33.4472L24.9956 31.9174L20.6713 22.821C20.6587 22.7946 20.6273 22.7834 20.6012 22.7961C20.583 22.805 20.5714 22.8236 20.5714 22.844Z" fill="#171716" stroke="#171716" stroke-width="2.22448" stroke-linecap="square"/>
<path fill-rule="evenodd" clip-rule="evenodd" d="M20.6475 23.3187L24.5266 31.4786C24.6718 31.7841 25.0283 31.9213 25.3377 31.7907L36.6751 27.005C36.9964 26.8694 37.1481 26.4961 37.0139 26.1713C37.0091 26.1596 37.004 26.1481 36.9985 26.1368L33.0269 17.929C32.8796 17.6245 32.5224 17.4899 32.2139 17.6225L20.969 22.456C20.6486 22.5938 20.4993 22.968 20.6355 23.292C20.6393 23.301 20.6433 23.3099 20.6475 23.3187Z" stroke="#171716" stroke-width="2.22448" stroke-linecap="square"/>
<path fill-rule="evenodd" clip-rule="evenodd" d="M31.0259 30.0972V39.7913C31.0259 40.1433 31.3081 40.4286 31.6563 40.4286C31.7401 40.4286 31.8231 40.4117 31.9003 40.379L42.9133 35.705C43.2254 35.5725 43.4285 35.2636 43.4285 34.9214V25.1674C43.4285 24.8154 43.1463 24.53 42.7981 24.53C42.7133 24.53 42.6294 24.5473 42.5514 24.5808L31.5376 29.3151C31.2273 29.4484 31.0259 29.7563 31.0259 30.0972Z" stroke="#171716" stroke-width="2.22448" stroke-linecap="square"/>
<rect x="12.625" y="9.625" width="38.75" height="38.75" rx="7.94643" stroke="#E9E8E3" stroke-width="1.25"/>
</g>
<defs>
<filter id="filter0_d_33_70" x="0.571429" y="0.428572" width="62.8571" height="62.8571" filterUnits="userSpaceOnUse" color-interpolation-filters="sRGB">
<feFlood flood-opacity="0" result="BackgroundImageFix"/>
<feColorMatrix in="SourceAlpha" type="matrix" values="0 0 0 0 0 0 0 0 0 0 0 0 0 0 0 0 0 0 127 0" result="hardAlpha"/>
<feOffset dy="2.85714"/>
<feGaussianBlur stdDeviation="5.71429"/>
<feComposite in2="hardAlpha" operator="out"/>
<feColorMatrix type="matrix" values="0 0 0 0 0.87098 0 0 0 0 0.8613 0 0 0 0 0.827421 0 0 0 0.1 0"/>
<feBlend mode="normal" in2="BackgroundImageFix" result="effect1_dropShadow_33_70"/>
<feBlend mode="normal" in="SourceGraphic" in2="effect1_dropShadow_33_70" result="shape"/>
</filter>
</defs>
</svg>
